<svg xmlns="http://www.w3.org/2000/svg" viewBox="0 0 718.92 145.43"><defs><style>.cls-1{fill:#aac939;}.cls-2{fill:#a9c839;}.cls-3{fill:none;}.cls-4{fill:#fff;}</style></defs><title>jec-world-logo-black_updated</title><g id="Calque_2" data-name="Calque 2"><g id="Calque_1-2" data-name="Calque 1"><path d="M164.5,91.43h-7V87.1h19.2v4.33h-7v19.1H164.5Z"/><path d="M178.24,87.1h4.66v8.82h.1a6,6,0,0,1,5-2.82c4.95,0,6.2,2.79,6.2,7v10.44H189.5V101c0-2.79-.82-4.17-3-4.17-2.52,0-3.61,1.41-3.61,4.86v8.89h-4.66Z"/><path d="M200.92,103.18c.13,2.95,1.57,4.3,4.16,4.3a3.85,3.85,0,0,0,3.68-2.2h4.1c-1.31,4-4.1,5.71-7.94,5.71-5.35,0-8.66-3.68-8.66-8.93,0-5.08,3.51-9,8.66-9,5.77,0,8.57,4.86,8.24,10.08Zm7.58-3c-.43-2.37-1.45-3.62-3.71-3.62a3.66,3.66,0,0,0-3.87,3.62Z"/><path d="M224.27,87.1h5.15v19.1h11.42v4.33H224.27Z"/><path d="M246.45,103.18c.13,2.95,1.57,4.3,4.17,4.3a3.82,3.82,0,0,0,3.67-2.2h4.1c-1.31,4-4.1,5.71-7.94,5.71-5.35,0-8.66-3.68-8.66-8.93,0-5.08,3.51-9,8.66-9,5.78,0,8.57,4.86,8.24,10.08Zm7.58-3c-.43-2.37-1.44-3.62-3.71-3.62a3.67,3.67,0,0,0-3.87,3.62Z"/><path d="M260.62,98.78c.26-4.36,4.17-5.68,8-5.68,3.38,0,7.45.76,7.45,4.83v8.83a8.78,8.78,0,0,0,.59,3.77h-4.72a6.45,6.45,0,0,1-.33-1.64,7.79,7.79,0,0,1-5.71,2.1c-3.22,0-5.78-1.61-5.78-5.09,0-3.84,2.89-4.76,5.78-5.15s5.51-.33,5.51-2.23-1.38-2.3-3-2.3-2.92.72-3.08,2.56Zm10.76,3.45c-.78.69-2.42.72-3.87,1s-2.76.79-2.76,2.5,1.35,2.16,2.86,2.16c3.64,0,3.77-2.89,3.77-3.9Z"/><path d="M291.13,108.36h-.06a5.64,5.64,0,0,1-5.15,2.63c-5.12,0-7.62-4.4-7.62-9.09s2.53-8.8,7.52-8.8a5.85,5.85,0,0,1,5,2.53h.06V87.1h4.66v23.43h-4.43Zm-4.07-11.75c-3.05,0-4.1,2.63-4.1,5.42s1.21,5.45,4.1,5.45c3.09,0,4-2.69,4-5.48S290.08,96.61,287.06,96.61Z"/><path d="M303.2,90.94h-4.66V87.1h4.66Zm-4.66,2.62h4.66v17h-4.66Z"/><path d="M306.25,93.56h4.43v2.36h.1A6.06,6.06,0,0,1,316,93.1c4.95,0,6.2,2.79,6.2,7v10.44h-4.66V101c0-2.79-.82-4.17-3-4.17-2.52,0-3.61,1.41-3.61,4.86v8.89h-4.66Z"/><path d="M341.39,109.45c0,2.79-1,7.51-8.79,7.51-3.35,0-7.26-1.57-7.49-5.45h4.63c.43,1.74,1.84,2.34,3.48,2.34,2.59,0,3.77-1.78,3.74-4.21v-2.23h-.06a5.74,5.74,0,0,1-5.09,2.63c-5.09,0-7.25-3.87-7.25-8.54,0-4.39,2.52-8.4,7.28-8.4a5.3,5.3,0,0,1,5.06,2.73H337V93.56h4.43ZM337,101.83c0-2.75-.95-5.22-4-5.22-2.62,0-3.77,2.3-3.77,4.83s.92,5.09,3.77,5.09C335.65,106.53,337,104.26,337,101.83Z"/><path d="M354.74,87.1h5.15v23.43h-5.15Z"/><path d="M363.27,93.56h4.43v2.36h.1A6,6,0,0,1,373,93.1c5,0,6.2,2.79,6.2,7v10.44h-4.66V101c0-2.79-.82-4.17-3-4.17-2.53,0-3.61,1.41-3.61,4.86v8.89h-4.66Z"/><path d="M388,93.56h3.42v3.12H388v8.4c0,1.58.4,2,2,2a7.18,7.18,0,0,0,1.45-.13v3.64a18.1,18.1,0,0,1-2.73.17c-2.85,0-5.35-.66-5.35-4v-10h-2.82V93.56h2.82V88.48H388Z"/><path d="M396.8,103.18c.13,2.95,1.57,4.3,4.16,4.3a3.85,3.85,0,0,0,3.68-2.2h4.1c-1.31,4-4.1,5.71-7.94,5.71-5.35,0-8.66-3.68-8.66-8.93,0-5.08,3.51-9,8.66-9,5.78,0,8.57,4.86,8.24,10.08Zm7.58-3c-.43-2.37-1.45-3.62-3.71-3.62a3.66,3.66,0,0,0-3.87,3.62Z"/><path d="M411.13,93.56h4.43v3.15h.07A6,6,0,0,1,421,93.1a3.46,3.46,0,0,1,1,.17V97.6a8.41,8.41,0,0,0-1.67-.17c-3.42,0-4.6,2.47-4.6,5.45v7.65h-4.66Z"/><path d="M423.24,93.56h4.43v2.36h.1A6,6,0,0,1,433,93.1c5,0,6.2,2.79,6.2,7v10.44h-4.66V101c0-2.79-.82-4.17-3-4.17-2.53,0-3.61,1.41-3.61,4.86v8.89h-4.66Z"/><path d="M441.84,98.78c.26-4.36,4.16-5.68,8-5.68,3.38,0,7.45.76,7.45,4.83v8.83a8.78,8.78,0,0,0,.59,3.77h-4.72a6.45,6.45,0,0,1-.33-1.64,7.81,7.81,0,0,1-5.71,2.1c-3.22,0-5.78-1.61-5.78-5.09,0-3.84,2.89-4.76,5.78-5.15s5.51-.33,5.51-2.23-1.38-2.3-3-2.3-2.92.72-3.08,2.56Zm10.76,3.45c-.79.69-2.43.72-3.87,1s-2.76.79-2.76,2.5,1.35,2.16,2.86,2.16c3.64,0,3.77-2.89,3.77-3.9Z"/><path d="M466.11,93.56h3.42v3.12h-3.42v8.4c0,1.58.4,2,2,2a7,7,0,0,0,1.45-.13v3.64a18.1,18.1,0,0,1-2.73.17c-2.85,0-5.35-.66-5.35-4v-10h-2.82V93.56h2.82V88.48h4.66Z"/><path d="M475.89,90.94h-4.66V87.1h4.66Zm-4.66,2.62h4.66v17h-4.66Z"/><path d="M487.14,93.1c5.35,0,8.8,3.55,8.8,9s-3.45,8.93-8.8,8.93-8.76-3.54-8.76-8.93S481.83,93.1,487.14,93.1Zm0,14.38c3.19,0,4.14-2.73,4.14-5.42s-.95-5.45-4.14-5.45-4.1,2.73-4.1,5.45S484,107.48,487.14,107.48Z"/><path d="M498.29,93.56h4.44v2.36h.09A6.06,6.06,0,0,1,508,93.1c5,0,6.2,2.79,6.2,7v10.44h-4.66V101c0-2.79-.82-4.17-3-4.17-2.53,0-3.61,1.41-3.61,4.86v8.89h-4.67Z"/><path d="M516.9,98.78c.26-4.36,4.16-5.68,8-5.68,3.38,0,7.45.76,7.45,4.83v8.83a8.63,8.63,0,0,0,.59,3.77h-4.72a6.45,6.45,0,0,1-.33-1.64,7.81,7.81,0,0,1-5.71,2.1c-3.22,0-5.78-1.61-5.78-5.09,0-3.84,2.89-4.76,5.78-5.15s5.51-.33,5.51-2.23-1.38-2.3-3-2.3-2.92.72-3.08,2.56Zm10.76,3.45c-.79.69-2.43.72-3.87,1s-2.76.79-2.76,2.5,1.35,2.16,2.86,2.16c3.64,0,3.77-2.89,3.77-3.9Z"/><path d="M535.4,87.1h4.66v23.43H535.4Z"/><path d="M174.94,123.9a5.06,5.06,0,0,0-5.12-4.1c-4.63,0-6.37,3.94-6.37,8,0,3.9,1.74,7.84,6.37,7.84,3.15,0,4.92-2.16,5.32-5.25h5c-.52,5.84-4.56,9.58-10.3,9.58-7.26,0-11.52-5.41-11.52-12.17,0-7,4.26-12.37,11.52-12.37,5.15,0,9.48,3,10.11,8.43Z"/><path d="M190.72,122c5.35,0,8.79,3.54,8.79,9s-3.44,8.93-8.79,8.93S182,136.37,182,131,185.4,122,190.72,122Zm0,14.37c3.18,0,4.13-2.72,4.13-5.41s-.95-5.45-4.13-5.45-4.11,2.73-4.11,5.45S187.56,136.4,190.72,136.4Z"/><path d="M202,122.49h4.39v2.3h.07a6.13,6.13,0,0,1,5.19-2.76,5,5,0,0,1,4.95,2.82,6.18,6.18,0,0,1,5.12-2.82c3.61,0,6.21,1.67,6.21,6.07v11.36h-4.67v-9.62c0-2.26-.19-4.13-2.85-4.13s-3.12,2.16-3.12,4.29v9.46h-4.66v-9.52c0-2,.13-4.23-2.82-4.23-.92,0-3.15.59-3.15,3.9v9.85H202Z"/><path d="M230.93,122.49h4.43v2.17h.07a5.63,5.63,0,0,1,5-2.63c5.32,0,7.71,4.3,7.71,9.12,0,4.53-2.49,8.77-7.45,8.77a6,6,0,0,1-5.08-2.56h-.07v8.07h-4.66Zm12.6,8.53c0-2.69-1.08-5.48-4.07-5.48s-4,2.73-4,5.48,1,5.38,4.07,5.38S243.53,133.78,243.53,131Z"/><path d="M258.56,122c5.35,0,8.79,3.54,8.79,9s-3.44,8.93-8.79,8.93-8.77-3.55-8.77-8.93S253.24,122,258.56,122Zm0,14.37c3.18,0,4.13-2.72,4.13-5.41s-.95-5.45-4.13-5.45-4.1,2.73-4.1,5.45S255.41,136.4,258.56,136.4Z"/><path d="M273.32,133.94c0,2,1.74,2.86,3.57,2.86,1.35,0,3.06-.53,3.06-2.17,0-1.41-1.94-1.9-5.29-2.62-2.69-.59-5.38-1.55-5.38-4.53,0-4.33,3.74-5.45,7.39-5.45s7.12,1.25,7.48,5.41h-4.43c-.13-1.8-1.51-2.29-3.19-2.29-1,0-2.59.19-2.59,1.57,0,1.68,2.63,1.91,5.29,2.53s5.38,1.61,5.38,4.76c0,4.46-3.88,5.91-7.75,5.91s-7.78-1.48-8-6Z"/><path d="M291.46,119.86H286.8V116h4.66Zm-4.66,2.63h4.66v17H286.8Z"/><path d="M300.38,122.49h3.42v3.12h-3.42V134c0,1.57.4,2,2,2a8,8,0,0,0,1.45-.13v3.64a18.15,18.15,0,0,1-2.73.16c-2.85,0-5.35-.65-5.35-4v-10H292.9v-3.12h2.82V117.4h4.66Z"/><path d="M309.21,132.11c.13,2.95,1.57,4.29,4.17,4.29a3.82,3.82,0,0,0,3.67-2.19h4.1c-1.31,4-4.1,5.71-7.94,5.71-5.35,0-8.66-3.68-8.66-8.93,0-5.09,3.51-9,8.66-9,5.78,0,8.57,4.86,8.24,10.08Zm7.58-3c-.43-2.36-1.44-3.61-3.71-3.61a3.67,3.67,0,0,0-3.87,3.61Z"/><path d="M327.15,133.94c0,2,1.74,2.86,3.58,2.86,1.35,0,3-.53,3-2.17,0-1.41-1.94-1.9-5.28-2.62-2.69-.59-5.39-1.55-5.39-4.53,0-4.33,3.75-5.45,7.39-5.45s7.12,1.25,7.48,5.41h-4.43c-.13-1.8-1.51-2.29-3.18-2.29-1.05,0-2.59.19-2.59,1.57,0,1.68,2.62,1.91,5.28,2.53s5.38,1.61,5.38,4.76c0,4.46-3.87,5.91-7.74,5.91s-7.78-1.48-8-6Z"/><path d="M353,131.68c0,3.12,2.43,4.33,5.19,4.33,1.8,0,4.56-.52,4.56-2.92s-3.52-3-7-3.87-7-2.27-7-6.66c0-4.8,4.53-7.09,8.76-7.09,4.89,0,9.39,2.13,9.39,7.54h-5c-.16-2.82-2.17-3.54-4.63-3.54-1.64,0-3.54.69-3.54,2.66,0,1.8,1.11,2,7,3.54,1.7.43,6.95,1.51,6.95,6.83,0,4.3-3.38,7.51-9.74,7.51-5.19,0-10-2.56-10-8.33Z"/><path d="M369.6,116h4.66v8.83h.1a6,6,0,0,1,4.95-2.82c5,0,6.21,2.79,6.21,7v10.44h-4.66v-9.59c0-2.79-.82-4.16-3-4.16-2.53,0-3.61,1.41-3.61,4.85v8.9H369.6Z"/><path d="M396.63,122c5.36,0,8.8,3.54,8.8,9s-3.44,8.93-8.8,8.93-8.76-3.55-8.76-8.93S391.32,122,396.63,122Zm0,14.37c3.19,0,4.14-2.72,4.14-5.41s-.95-5.45-4.14-5.45-4.1,2.73-4.1,5.45S393.49,136.4,396.63,136.4Z"/><path d="M427.18,139.46h-4.79l-3-11.39h-.06l-2.89,11.39h-4.83l-5.38-17h4.92L414.25,134h.07l2.82-11.52h4.53L424.56,134h.06l3.12-11.49h4.79Z"/><path class="cls-1" d="M204.36,50.15c0,9.12-2.48,24-23.59,24-11.79,0-23.29-6.44-23.29-21.91V46.09h14.07v3.17c0,6.84,1.69,11.8,9,11.8,8.23,0,8.23-6.65,8.23-11.6V1.68h15.56Z"/><path class="cls-1" d="M215.16,1.68h52.93V14.77H230.72V29.93H265V42H230.72V59.37h38.16V72.45H215.16Z"/><path class="cls-1" d="M323.69,25.47c-1-7-7.74-12.39-15.47-12.39-14,0-19.23,11.9-19.23,24.29,0,11.79,5.26,23.69,19.23,23.69,9.52,0,14.87-6.55,16.06-15.86h15.07c-1.59,17.64-13.78,28.94-31.13,28.94-21.9,0-34.79-16.36-34.79-36.77,0-21,12.89-37.37,34.79-37.37,15.57,0,28.65,9.12,30.53,25.47Z"/><path d="M434.59,72.45H419.13l-12-48.17h-.2L395.14,72.45H379.38L360.65,1.68h15.56l11.2,48.18h.2L399.9,1.68h14.57l12.09,48.77h.2L438.35,1.68h15.27Z"/><path d="M489.49,0c21.9,0,34.79,16.35,34.79,37.37,0,20.41-12.89,36.77-34.79,36.77S454.7,57.78,454.7,37.37C454.7,16.35,467.58,0,489.49,0Zm0,61.06c14,0,19.23-11.9,19.23-23.69,0-12.39-5.26-24.29-19.23-24.29S470.26,25,470.26,37.37C470.26,49.16,475.51,61.06,489.49,61.06Z"/><path d="M531.9,1.68h38.16c12.69,0,20.72,8.83,20.72,19.53,0,8.33-3.37,14.57-11.2,17.74v.2c7.63,2,9.81,9.42,10.31,16.55.29,4.46.19,12.79,3,16.75H577.3c-1.89-4.46-1.69-11.3-2.48-16.94-1.09-7.44-4-10.71-11.79-10.71H547.46V72.45H531.9Zm15.56,32h17c6.94,0,10.71-3,10.71-10.11,0-6.84-3.77-9.81-10.71-9.81h-17Z"/><path d="M600.48,1.68H616V59.37h34.5V72.45H600.48Z"/><path d="M656.28,1.68h30.53c18.33,0,32.11,11.5,32.11,35,0,20.52-10.51,35.78-32.11,35.78H656.28Zm15.56,57.69h13.88c9,0,17.64-5.55,17.64-21.21,0-14.27-5-23.39-20.42-23.39h-11.1Z"/><path class="cls-2" d="M94.25,16.17l-.76.44c-.43,13.53-1.28,27.87-2.95,38.48l-6.49.07H97.2C95.52,44.42,94.68,29.85,94.25,16.17Z"/><path class="cls-2" d="M93.77,104.9a29,29,0,0,0-19.54,7.51l47.85,26.74V124.51C119.24,118.32,111.17,105.13,93.77,104.9Z"/><path class="cls-2" d="M69.41,98.32c0-4.19-.68-4.87-.68-4.87l.45-1.14V88.8h49.17v3.51l.45,1.14s-.68.68-.68,4.87l4,6.57V0L98.59,13.65c1.19,17.61,2.88,35.93,5,41.51h.83l2.38.79.12,1.7-1.36,7.17h-.08c2.29,6.89,6.91,20.8,8,23.76H101c-1.47-6.23-2.83-16.32-2.83-16.32H89.35S88,82.35,86.51,88.58H73.83c1.11-3,5.8-17.12,8.06-23.94h-.06l-1.32-7,.12-1.7L83,55.16h1c1.88-5,3.4-20,4.54-35.7L0,70.94l64.27,35.91Z"/><path class="cls-3" d="M68.73,93.45l.45-1.14V88.8h49.17v3.51l.45,1.14s-.68.68-.68,4.87l4,6.57V0L98.59,13.65c1.19,17.61,2.88,35.93,5,41.51h.83l2.38.79.12,1.7-1.36,7.17h-.08c2.29,6.89,6.91,20.8,8,23.76H101c-1.47-6.23-2.83-16.32-2.83-16.32H89.35S88,82.35,86.51,88.58H73.83c1.11-3,5.8-17.12,8.06-23.94h-.06l-1.32-7,.12-1.7L83,55.16h1c1.88-5,3.4-20,4.54-35.7L0,70.94l64.27,35.91,5.14-8.53C69.41,94.13,68.73,93.45,68.73,93.45Z"/><path class="cls-3" d="M93.77,104.9a29,29,0,0,0-19.54,7.51l47.85,26.74V124.51C119.24,118.32,111.17,105.13,93.77,104.9Z"/><path class="cls-3" d="M84.05,55.16H97.2c-1.68-10.74-2.52-25.31-3-39l-.76.44c-.43,13.53-1.28,27.87-2.95,38.48Z"/><path class="cls-4" d="M84.05,55.16H83L80.63,56l-.12,1.7,1.32,7h.06c-2.26,6.82-7,21-8.06,23.94H86.51c1.48-6.23,2.84-16.32,2.84-16.32h8.83S99.54,82.35,101,88.58h12.46c-1.09-3-5.71-16.87-8-23.76h.08l1.36-7.17-.12-1.7-2.38-.79h-.83c-2.11-5.58-3.8-23.9-5-41.51l-4.34,2.52c.43,13.68,1.27,28.25,3,39Z"/><path class="cls-4" d="M90.54,55.09c1.67-10.61,2.52-25,2.95-38.48l-4.9,2.85c-1.14,15.67-2.66,30.73-4.54,35.7Z"/><path class="cls-4" d="M122.08,124.51V104.89l-4-6.57c0-4.19.68-4.87.68-4.87l-.45-1.14V88.8H69.18v3.51l-.45,1.14s.68.68.68,4.87l-5.14,8.53,10,5.56a29,29,0,0,1,19.54-7.51C111.17,105.13,119.24,118.32,122.08,124.51Z"/></g></g></svg>