<?xml version="1.0" encoding="UTF-8"?><svg id="_레이어_1" xmlns="http://www.w3.org/2000/svg" xmlns:xlink="http://www.w3.org/1999/xlink" viewBox="0 0 150 43"><defs><style>.cls-1{clip-path:url(#clippath-2);}.cls-2{clip-path:url(#clippath-1);}.cls-3{fill:url(#radial-gradient);}.cls-4{clip-path:url(#clippath);}.cls-5{fill:url(#radial-gradient-2);}.cls-6{fill:none;}.cls-7{fill:url(#radial-gradient-3);}.cls-8{fill:#001b71;}</style><clipPath id="clippath"><path class="cls-6" d="M131.18,3.98c2.23-1.39,3.68-.07,2.99,1.61-.34,.82-1.74,1.39-2.48,2.13-1.71,1.71-1.25,4.88,.51,5.49,1.62,.55,.09-2.39,1.63-3.67,1.63-1.25,5.82,.93,2.46,3.78-.79,.58-.91,.77-1.42,1.28-2.75,2.75,1.71,5.88,4.98,5.48,2.9-.36,3.69-2.26,4.09-4.97,.36-2.47-.13-3.33,.26-5.12,1.23-3.4,5.21-.51,5.77,1.14,.01-.19,.03-.37,.03-.57,0-5.83-4.73-10.56-10.57-10.56-3.34,0-6.32,1.56-8.25,3.98"/></clipPath><radialGradient id="radial-gradient" cx="628.18" cy="403.99" fx="628.18" fy="403.99" r="1.11" gradientTransform="translate(-6439.14 4235.71) scale(10.47 -10.47)" gradientUnits="userSpaceOnUse"><stop offset=".08" stop-color="#007dc4"/><stop offset=".91" stop-color="#20245b"/></radialGradient><clipPath id="clippath-1"><path class="cls-6" d="M131.18,3.98c-1.44,1.8-2.31,4.09-2.31,6.58,0,5.83,4.73,10.56,10.56,10.56s10.24-4.43,10.54-10c-.56-1.65-4.54-4.54-5.77-1.14-.39,1.79,.11,2.65-.26,5.12-.4,2.71-1.19,4.61-4.09,4.97-3.27,.4-7.74-2.72-4.98-5.48,.51-.52,.63-.71,1.42-1.28,3.36-2.85-.83-5.03-2.46-3.78-1.54,1.28,0,4.22-1.63,3.67-1.76-.6-2.22-3.78-.51-5.49,.74-.74,2.14-1.31,2.48-2.13,.49-1.18-.09-2.19-1.26-2.19-.49,0-1.07,.17-1.73,.58"/></clipPath><radialGradient id="radial-gradient-2" cx="632.5" cy="405.21" fx="632.5" fy="405.21" r="1.11" gradientTransform="translate(-6865.71 4494.08) scale(11.07 -11.07)" gradientUnits="userSpaceOnUse"><stop offset="0" stop-color="#e6e7e7"/><stop offset=".43" stop-color="#b7c0c5"/><stop offset="1" stop-color="#738995"/></radialGradient><clipPath id="clippath-2"><path class="cls-6" d="M142.84,4.22c-.49,.67-.06,1.82,.95,2.54,1.01,.73,2.22,.78,2.71,.1,.49-.68,.06-1.81-.95-2.54-.53-.38-1.12-.58-1.63-.58-.46,0-.85,.16-1.08,.48"/></clipPath><radialGradient id="radial-gradient-3" cx="632.55" cy="405.18" fx="632.55" fy="405.18" r="1.11" gradientTransform="translate(-6866.41 4493.97) scale(11.07 -11.07)" xlink:href="#radial-gradient-2"/></defs><g><g class="cls-4"><rect class="cls-3" x="129.98" y="0" width="20.02" height="20.47"/></g><g class="cls-2"><rect class="cls-5" x="128.87" y="3.4" width="21.1" height="17.73"/></g><g class="cls-1"><rect class="cls-7" x="142.36" y="3.75" width="4.63" height="3.8"/></g></g><g><path class="cls-8" d="M102.89,13.6v11.04l-10.36-9.88s-.06-.06-.06-.06c-.99-.98-1.12-1.1-3.5-1.1h-3.4v13.48h2.85v-9.72l.56,.53c2.43,2.31,8.12,7.75,8.63,8.25,.75,.73,1.28,.95,3.37,.95,0,0,3.68,0,4.76,0V13.6h-2.85Z"/><path class="cls-8" d="M52.8,13.37h0c-7.47,.31-10.38,2.31-10.38,7.15,0,5.45,3.97,6.7,10.38,6.97,2.98,.13,8.18-.23,9.41-.32v-5.89h-5.53v4.34h-.3c-1.08,.03-1.92,0-2.5-.09-3.84-.56-5.64-2.2-5.48-5.03-.15-2.81,1.69-4.53,5.48-5.08,2.07-.3,6.91,.16,8.26,.3v-2.04c-1.33-.1-6.4-.44-9.34-.31"/><path class="cls-8" d="M34.14,13.64v10.37c0,1.47-2.16,2.01-4,2.02-1.85-.01-4.01-.55-4.01-2.02,0,0,0-8.85,.01-10.37h-5.9c0,.43-.01,9.95-.01,9.95,0,2.34,3.87,4.25,8.63,4.25h2.55c4.76,0,8.63-1.9,8.63-4.25,0,0-.01-9.52-.01-9.95h-5.89Z"/><path class="cls-8" d="M7.27,24.51h-.02c-.87-.11-1.36-.56-1.36-1.24v-2.36h11.56v-2.58H5.88v-2.14h11.56v-2.58H0v11.61c0,1.03,1.16,1.87,2.58,1.87h14.87v-2.58H7.27Z"/><path class="cls-8" d="M72.61,24.51h-.02c-.87-.11-1.36-.56-1.36-1.24v-2.36h11.57v-2.58h-11.57v-2.14h11.57v-2.58h-17.45v11.61c0,1.03,1.16,1.87,2.58,1.87h14.87v-2.58h-10.18Z"/><path class="cls-8" d="M115.97,24.51h-.03c-.87-.11-1.36-.56-1.36-1.24v-2.36h11.56v-2.58h-11.56v-2.14h11.56v-2.58h-17.45v11.61c0,1.03,1.16,1.87,2.58,1.87h14.87v-2.58h-10.18Z"/></g><g><g><path class="cls-8" d="M100.14,31.83v1.02h5.57v6.95h2.2v-6.8c-.04-.61-.52-1.11-1.13-1.18h-6.64Z"/><path class="cls-8" d="M109.83,31.55v10.6h2.29v-10.6h-2.29Z"/></g><g><path class="cls-8" d="M75,32.17h0c-.76,.53-1.14,1.21-1.14,2.01s.38,1.41,1.14,1.93c.85,.59,2.06,.89,3.58,.89s2.71-.3,3.57-.89c.76-.52,1.15-1.17,1.15-1.93,0-.8-.39-1.48-1.15-2.01-.87-.6-2.07-.91-3.57-.91s-2.72,.31-3.58,.91Zm1.06,2.01c0-.57,.22-1.04,.64-1.4,.46-.39,1.09-.58,1.88-.58s1.4,.19,1.87,.58c.43,.36,.66,.83,.66,1.4s-.22,1-.66,1.34c-.46,.36-1.08,.55-1.87,.55s-1.42-.18-1.88-.55c-.43-.34-.64-.79-.64-1.33Zm-3.8,3.62v1.02h2.38v3.34h2.21v-3.34h3.36v3.34h2.16v-3.34h2.39v-1.02h-12.5Z"/><g><path class="cls-8" d="M96.13,31.55v7.3h2.29v-7.3h-2.29Z"/><path class="cls-8" d="M86.49,31.74v1.05h2.58v.07c-.25,2.82-2.37,3.16-2.76,3.2v1.21c2.6-.03,3.72-1.65,4.2-3.02l.06-.18,.07,.18c.48,1.37,1.6,2.99,4.19,3.02v-1.21c-.39-.04-2.51-.38-2.75-3.2v-.07s2.48,0,2.61,0v-1.05h-8.21Z"/></g><path class="cls-8" d="M87.71,38.21v2.7c.04,.61,.52,1.11,1.13,1.18h9.61v-1.05h-8.57v-2.83h-2.17Z"/></g><path class="cls-8" d="M114.91,32.2h0c-.64,.52-.97,1.19-.97,1.97s.33,1.39,.97,1.9c.72,.58,1.74,.88,3.03,.88s2.29-.3,3.01-.88c.55-.43,.86-.95,.95-1.56v-.06h1.95v2.77h2.3v-5.68h-2.3v1.76h-2.07l-.02-.04c-.16-.4-.43-.76-.81-1.07-.73-.59-1.74-.89-3.01-.89s-2.31,.3-3.03,.89Zm1.22,1.97c0-.53,.15-.96,.45-1.3,.33-.36,.78-.55,1.35-.55s1.01,.18,1.34,.55c.31,.33,.46,.77,.46,1.3s-.16,.92-.47,1.24c-.32,.34-.78,.52-1.34,.52s-1.03-.17-1.35-.52c-.3-.31-.46-.73-.46-1.24Z"/><path class="cls-8" d="M123.84,37.98v1.12h-5.59v-1.12h-2.25v2.88c0,.71,.58,1.29,1.29,1.29,0,0,8.71,0,8.85,0v-4.17h-2.29Zm-5.59,3.13v-1.03h5.59v1.1h-5.59v-.07Z"/></g></svg>