<?xml version="1.0" encoding="UTF-8"?><svg id="_레이어_1" xmlns="http://www.w3.org/2000/svg" viewBox="0 0 150 43"><defs><style>.cls-1{fill:#fff;}</style></defs><path class="cls-1" d="M139.31,0c-3.26,0-6.31,1.47-8.35,4.03l-.45,.57,.07-.04c-1.27,1.8-1.95,3.91-1.95,6.13,0,5.89,4.79,10.69,10.69,10.69,5.48,0,10.03-4.15,10.6-9.54l.02,.06,.05-.77c0-.14,.02-.29,.02-.43,0-5.89-4.8-10.69-10.69-10.69Zm6.97,6.92c-.45,.62-1.59,.56-2.54-.13-.58-.42-.99-1.01-1.08-1.56-.05-.31,0-.59,.16-.81,.2-.27,.55-.43,.98-.43,.5,0,1.07,.2,1.55,.56,.95,.69,1.36,1.75,.92,2.37Zm-6.97,14.21c-5.75,0-10.44-4.68-10.44-10.44,0-2.38,.78-4.62,2.27-6.48,.23-.14,.46-.25,.68-.34,.04-.01,.07-.03,.11-.04,.21-.08,.4-.12,.59-.15,.05,0,.09,0,.14-.01,.18-.01,.35,0,.51,.03,.03,0,.06,.02,.09,.03,.16,.05,.31,.12,.43,.22,0,0,0,0,0,0,.1,.08,.17,.18,.23,.29,.02,.04,.04,.08,.06,.13,.03,.08,.06,.16,.08,.25,0,.05,.02,.09,.02,.14,0,.1,0,.2,0,.31,0,.05,0,.09-.01,.14-.03,.15-.07,.31-.13,.46,0,0,0,0,0,0-.19,.46-.79,.87-1.37,1.26-.39,.26-.79,.53-1.08,.83-.69,.69-1.09,1.68-1.11,2.7,0,.34,.03,.68,.1,1.02,.17,.75,.54,1.34,1.03,1.7,.16,.12,.34,.21,.53,.28,.31,.11,.54,.1,.7-.02,.29-.21,.3-.69,.31-1.29,.01-.8,.02-1.79,.73-2.38,.83-.63,2.42-.34,3.17,.59,.69,.85,.37,1.95-.86,2.99-.63,.46-.84,.67-1.15,1-.08,.09-.18,.18-.29,.3-1.16,1.16-.99,2.26-.64,2.98,.1,.21,.23,.4,.38,.59,.05,.06,.11,.12,.17,.18,.11,.12,.22,.25,.34,.36,.08,.07,.16,.13,.24,.2,.12,.1,.25,.2,.38,.29,.09,.06,.19,.12,.29,.18,.14,.08,.27,.16,.41,.23,.11,.05,.22,.1,.33,.15,.15,.06,.29,.12,.44,.18,.12,.04,.23,.08,.35,.11,.15,.05,.31,.08,.46,.12,.12,.03,.24,.05,.36,.07,.16,.03,.32,.04,.48,.06,.12,0,.23,.02,.35,.02,.04,0,.09,0,.13,0,.21,0,.41-.01,.61-.04,2.92-.36,3.79-2.29,4.2-5.07,.18-1.25,.15-2.1,.12-2.84-.03-.75-.06-1.39,.13-2.26,.09-.25,.2-.47,.32-.65,.37-.56,.88-.85,1.52-.85,0,0,.01,0,.02,0,.19,0,.39,.03,.58,.08,.04,.01,.09,.03,.13,.05,.15,.04,.3,.09,.45,.15,.06,.03,.12,.06,.18,.09,.13,.06,.26,.12,.39,.2,.07,.04,.13,.09,.19,.13,.11,.08,.23,.15,.34,.23,.07,.05,.13,.11,.2,.17,.09,.08,.19,.16,.28,.24,.07,.06,.12,.13,.18,.2,.07,.08,.15,.16,.22,.24,.06,.07,.1,.14,.15,.21,.05,.08,.12,.15,.16,.23,.04,.07,.07,.13,.1,.2,.03,.07,.07,.14,.1,.2-.31,5.53-4.88,9.85-10.41,9.85Z"/><g><path class="cls-1" d="M102.89,13.6v11.04l-10.36-9.88s-.06-.06-.06-.06c-.99-.98-1.12-1.1-3.5-1.1h-3.4v13.48h2.85v-9.72l.56,.53c2.43,2.31,8.12,7.75,8.63,8.25,.75,.73,1.28,.95,3.37,.95,0,0,3.68,0,4.76,0V13.6h-2.85Z"/><path class="cls-1" d="M52.8,13.37h0c-7.47,.31-10.38,2.31-10.38,7.15,0,5.45,3.97,6.7,10.38,6.97,2.98,.13,8.18-.23,9.41-.32v-5.89h-5.53v4.34h-.3c-1.08,.03-1.92,0-2.5-.09-3.84-.56-5.64-2.2-5.48-5.03-.15-2.81,1.69-4.53,5.48-5.08,2.07-.3,6.91,.16,8.26,.3v-2.04c-1.33-.1-6.4-.44-9.34-.31"/><path class="cls-1" d="M34.14,13.64v10.37c0,1.47-2.16,2.01-4,2.02-1.85-.01-4.01-.55-4.01-2.02,0,0,0-8.85,.01-10.37h-5.9c0,.43-.01,9.95-.01,9.95,0,2.34,3.87,4.25,8.63,4.25h2.55c4.76,0,8.63-1.9,8.63-4.25,0,0-.01-9.52-.01-9.95h-5.89Z"/><path class="cls-1" d="M7.27,24.51h-.02c-.87-.11-1.36-.56-1.36-1.24v-2.36h11.56v-2.58H5.88v-2.14h11.56v-2.58H0v11.61c0,1.03,1.16,1.87,2.58,1.87h14.87v-2.58H7.27Z"/><path class="cls-1" d="M72.61,24.51h-.02c-.87-.11-1.36-.56-1.36-1.24v-2.36h11.57v-2.58h-11.57v-2.14h11.57v-2.58h-17.45v11.61c0,1.03,1.16,1.87,2.58,1.87h14.87v-2.58h-10.18Z"/><path class="cls-1" d="M115.97,24.51h-.03c-.87-.11-1.36-.56-1.36-1.24v-2.36h11.56v-2.58h-11.56v-2.14h11.56v-2.58h-17.45v11.61c0,1.03,1.16,1.87,2.58,1.87h14.87v-2.58h-10.18Z"/></g><g><g><path class="cls-1" d="M100.14,31.83v1.02h5.57v6.95h2.2v-6.8c-.04-.61-.52-1.11-1.13-1.18h-6.64Z"/><path class="cls-1" d="M109.83,31.55v10.6h2.29v-10.6h-2.29Z"/></g><g><path class="cls-1" d="M75,32.17h0c-.76,.53-1.14,1.21-1.14,2.01s.38,1.41,1.14,1.93c.85,.59,2.06,.89,3.58,.89s2.71-.3,3.57-.89c.76-.52,1.15-1.17,1.15-1.93,0-.8-.39-1.48-1.15-2.01-.87-.6-2.07-.91-3.57-.91s-2.72,.31-3.58,.91Zm1.06,2.01c0-.57,.22-1.04,.64-1.4,.46-.39,1.09-.58,1.88-.58s1.4,.19,1.87,.58c.43,.36,.66,.83,.66,1.4s-.22,1-.66,1.34c-.46,.36-1.08,.55-1.87,.55s-1.42-.18-1.88-.55c-.43-.34-.64-.79-.64-1.33Zm-3.8,3.62v1.02h2.38v3.34h2.21v-3.34h3.36v3.34h2.16v-3.34h2.39v-1.02h-12.5Z"/><g><path class="cls-1" d="M96.13,31.55v7.3h2.29v-7.3h-2.29Z"/><path class="cls-1" d="M86.49,31.74v1.05h2.58v.07c-.25,2.82-2.37,3.16-2.76,3.2v1.21c2.6-.03,3.72-1.65,4.2-3.02l.06-.18,.07,.18c.48,1.37,1.6,2.99,4.19,3.02v-1.21c-.39-.04-2.51-.38-2.75-3.2v-.07s2.48,0,2.61,0v-1.05h-8.21Z"/></g><path class="cls-1" d="M87.71,38.21v2.7c.04,.61,.52,1.11,1.13,1.18h9.61v-1.05h-8.57v-2.83h-2.17Z"/></g><path class="cls-1" d="M114.91,32.2h0c-.64,.52-.97,1.19-.97,1.97s.33,1.39,.97,1.9c.72,.58,1.74,.88,3.03,.88s2.29-.3,3.01-.88c.55-.43,.86-.95,.95-1.56v-.06h1.95v2.77h2.3v-5.68h-2.3v1.76h-2.07l-.02-.04c-.16-.4-.43-.76-.81-1.07-.73-.59-1.74-.89-3.01-.89s-2.31,.3-3.03,.89Zm1.22,1.97c0-.53,.15-.96,.45-1.3,.33-.36,.78-.55,1.35-.55s1.01,.18,1.34,.55c.31,.33,.46,.77,.46,1.3s-.16,.92-.47,1.24c-.32,.34-.78,.52-1.34,.52s-1.03-.17-1.35-.52c-.3-.31-.46-.73-.46-1.24Z"/><path class="cls-1" d="M123.84,37.98v1.12h-5.59v-1.12h-2.25v2.88c0,.71,.58,1.29,1.29,1.29,0,0,8.71,0,8.85,0v-4.17h-2.29Zm-5.59,3.13v-1.03h5.59v1.1h-5.59v-.07Z"/></g></svg>